<svg width="16" height="16" viewBox="0 0 16 16" fill="none" xmlns="http://www.w3.org/2000/svg">
<g clip-path="url(#clip0)">
<path d="M10.6667 0.5H10.58C10.2816 0.502657 9.99267 0.598133 9.75846 0.771437C9.52425 0.944741 9.35807 1.18606 9.286 1.4575C9.20882 1.72177 9.04115 1.95495 8.80879 2.12116C8.57644 2.28737 8.29227 2.3774 8 2.3774C7.70773 2.3774 7.42356 2.28737 7.19121 2.12116C6.95885 1.95495 6.79118 1.72177 6.714 1.4575C6.64193 1.18606 6.47575 0.944741 6.24154 0.771437C6.00733 0.598133 5.71836 0.502657 5.42 0.5L5.33333 0.5C4.4496 0.500992 3.60237 0.830551 2.97748 1.41639C2.35259 2.00222 2.00106 2.7965 2 3.625V13.625C2 14.1223 2.21071 14.5992 2.58579 14.9508C2.96086 15.3025 3.46957 15.5 4 15.5H5.42C5.71836 15.4973 6.00733 15.4019 6.24154 15.2286C6.47575 15.0553 6.64193 14.8139 6.714 14.5425C6.79118 14.2782 6.95885 14.045 7.19121 13.8788C7.42356 13.7126 7.70773 13.6226 8 13.6226C8.29227 13.6226 8.57644 13.7126 8.80879 13.8788C9.04115 14.045 9.20882 14.2782 9.286 14.5425C9.35807 14.8139 9.52425 15.0553 9.75846 15.2286C9.99267 15.4019 10.2816 15.4973 10.58 15.5H12C12.5304 15.5 13.0391 15.3025 13.4142 14.9508C13.7893 14.5992 14 14.1223 14 13.625V3.625C13.9989 2.7965 13.6474 2.00222 13.0225 1.41639C12.3976 0.830551 11.5504 0.500992 10.6667 0.5V0.5ZM12 14.25L10.5713 14.2106C10.4148 13.6803 10.0759 13.2132 9.60728 12.8817C9.13868 12.5503 8.56653 12.3731 7.97955 12.3776C7.39258 12.3821 6.82359 12.568 6.36081 12.9065C5.89804 13.2451 5.56734 13.7173 5.42 14.25H4C3.82319 14.25 3.65362 14.1842 3.5286 14.0669C3.40357 13.9497 3.33333 13.7908 3.33333 13.625V11.125H4.66667C4.84348 11.125 5.01305 11.0592 5.13807 10.9419C5.2631 10.8247 5.33333 10.6658 5.33333 10.5C5.33333 10.3342 5.2631 10.1753 5.13807 10.0581C5.01305 9.94085 4.84348 9.875 4.66667 9.875H3.33333V3.625C3.33333 3.12772 3.54405 2.65081 3.91912 2.29917C4.29419 1.94754 4.8029 1.75 5.33333 1.75L5.42867 1.78937C5.58482 2.31652 5.92066 2.78128 6.38495 3.11272C6.84923 3.44416 7.41644 3.62408 8 3.625C8.59144 3.62028 9.16504 3.43456 9.63353 3.0961C10.102 2.75764 10.4398 2.28497 10.5953 1.75H10.6667C11.1971 1.75 11.7058 1.94754 12.0809 2.29917C12.456 2.65081 12.6667 3.12772 12.6667 3.625V9.875H11.3333C11.1565 9.875 10.987 9.94085 10.8619 10.0581C10.7369 10.1753 10.6667 10.3342 10.6667 10.5C10.6667 10.6658 10.7369 10.8247 10.8619 10.9419C10.987 11.0592 11.1565 11.125 11.3333 11.125H12.6667V13.625C12.6667 13.7908 12.5964 13.9497 12.4714 14.0669C12.3464 14.1842 12.1768 14.25 12 14.25Z" fill="white"/>
<path d="M8.66667 9.875H7.33334C7.15653 9.875 6.98696 9.94085 6.86193 10.0581C6.73691 10.1753 6.66667 10.3342 6.66667 10.5C6.66667 10.6658 6.73691 10.8247 6.86193 10.9419C6.98696 11.0592 7.15653 11.125 7.33334 11.125H8.66667C8.84348 11.125 9.01305 11.0592 9.13808 10.9419C9.2631 10.8247 9.33334 10.6658 9.33334 10.5C9.33334 10.3342 9.2631 10.1753 9.13808 10.0581C9.01305 9.94085 8.84348 9.875 8.66667 9.875Z" fill="white"/>
</g>
<defs>
<clipPath id="clip0">
<rect width="16" height="15" fill="white" transform="translate(0 0.5)"/>
</clipPath>
</defs>
</svg>
